<svg width="134" height="40" viewBox="0 0 134 40" fill="none" xmlns="http://www.w3.org/2000/svg">
<path d="M29.375 7.67578C30.5599 7.91016 31.6471 8.32682 32.6367 8.92578C33.6263 9.52474 34.4792 10.2539 35.1953 11.1133C35.9115 11.9727 36.4779 12.9492 36.8945 14.043C37.3112 15.1367 37.513 16.2891 37.5 17.5C37.5 18.8151 37.2591 20.0586 36.7773 21.2305C36.2956 22.4023 35.625 23.444 34.7656 24.3555C33.9062 25.2669 32.9102 25.9961 31.7773 26.543C30.6445 27.0898 29.4141 27.4023 28.0859 27.4805C27.1615 28.8607 26.0026 29.987 24.6094 30.8594C23.2161 31.7318 21.6797 32.2591 20 32.4414V40H17.5V32.4414C15.8333 32.2591 14.3034 31.7318 12.9102 30.8594C11.5169 29.987 10.3516 28.8607 9.41406 27.4805C8.09896 27.4154 6.86849 27.1094 5.72266 26.5625C4.57682 26.0156 3.58073 25.2865 2.73438 24.375C1.88802 23.4635 1.22396 22.4219 0.742188 21.25C0.260417 20.0781 0.0130208 18.8281 0 17.5C0 16.2891 0.201823 15.1432 0.605469 14.0625C1.00911 12.9818 1.56901 12.0052 2.28516 11.1328C3.0013 10.2604 3.86068 9.52474 4.86328 8.92578C5.86589 8.32682 6.95312 7.91016 8.125 7.67578C8.5026 6.52995 9.04297 5.48828 9.74609 4.55078C10.4492 3.61328 11.263 2.80599 12.1875 2.12891C13.112 1.45182 14.1341 0.93099 15.2539 0.566406C16.3737 0.201823 17.5391 0.0130208 18.75 0C19.9609 0 21.1198 0.182292 22.2266 0.546875C23.3333 0.911458 24.3555 1.4388 25.293 2.12891C26.2305 2.81901 27.0508 3.6263 27.7539 4.55078C28.457 5.47526 28.9974 6.51693 29.375 7.67578ZM27.5 25C28.5286 25 29.4987 24.8047 30.4102 24.4141C31.3216 24.0234 32.1159 23.4896 32.793 22.8125C33.4701 22.1354 34.0104 21.3411 34.4141 20.4297C34.8177 19.5182 35.013 18.5417 35 17.5C35 16.4714 34.8047 15.5013 34.4141 14.5898C34.0234 13.6784 33.4896 12.8841 32.8125 12.207C32.1354 11.5299 31.3346 10.9896 30.4102 10.5859C29.4857 10.1823 28.5156 9.98698 27.5 10H27.4414C27.4284 10 27.4089 10.0065 27.3828 10.0195C27.2266 8.95182 26.8945 7.96224 26.3867 7.05078C25.8789 6.13932 25.2409 5.33854 24.4727 4.64844C23.7044 3.95833 22.832 3.43099 21.8555 3.06641C20.8789 2.70182 19.8438 2.51302 18.75 2.5C17.6562 2.5 16.6211 2.6888 15.6445 3.06641C14.668 3.44401 13.7956 3.97135 13.0273 4.64844C12.2591 5.32552 11.6211 6.11979 11.1133 7.03125C10.6055 7.94271 10.2734 8.9388 10.1172 10.0195H10.0586C10.0456 10.0195 10.026 10.013 10 10C8.95833 10.013 7.98177 10.2148 7.07031 10.6055C6.15885 10.9961 5.36458 11.5234 4.6875 12.1875C4.01042 12.8516 3.47656 13.6458 3.08594 14.5703C2.69531 15.4948 2.5 16.4714 2.5 17.5C2.5 18.5417 2.69531 19.5117 3.08594 20.4102C3.47656 21.3086 4.01042 22.1029 4.6875 22.793C5.36458 23.4831 6.15885 24.0234 7.07031 24.4141C7.98177 24.8047 8.95833 25 10 25H10.8789C11.1914 25.6641 11.5755 26.2695 12.0312 26.8164C12.487 27.3633 13.0013 27.8516 13.5742 28.2812C14.1471 28.7109 14.7591 29.0625 15.4102 29.3359C16.0612 29.6094 16.7578 29.7982 17.5 29.9023V27.3828C16.7708 27.2266 16.1003 26.9596 15.4883 26.582C14.8763 26.2044 14.349 25.7487 13.9062 25.2148C13.4635 24.681 13.1185 24.069 12.8711 23.3789C12.6237 22.6888 12.5 21.9792 12.5 21.25H15C15 21.6406 15.0586 22.0182 15.1758 22.3828C15.293 22.7474 15.4622 23.0924 15.6836 23.418C15.9049 23.7435 16.1654 24.0169 16.4648 24.2383C16.7643 24.4596 17.1094 24.6419 17.5 24.7852V17.5H20V24.7852C20.3776 24.6549 20.7161 24.4727 21.0156 24.2383C21.3151 24.0039 21.582 23.7305 21.8164 23.418C22.0508 23.1055 22.2201 22.7669 22.3242 22.4023C22.4284 22.0378 22.487 21.6536 22.5 21.25H25C25 21.9922 24.8763 22.7018 24.6289 23.3789C24.3815 24.056 24.0365 24.6615 23.5938 25.1953C23.151 25.7292 22.6237 26.1914 22.0117 26.582C21.3997 26.9727 20.7292 27.2396 20 27.3828V29.9023C20.7161 29.7982 21.4062 29.6094 22.0703 29.3359C22.7344 29.0625 23.3529 28.7174 23.9258 28.3008C24.4987 27.8841 25.013 27.3958 25.4688 26.8359C25.9245 26.276 26.3086 25.6641 26.6211 25H27.5Z" fill="#DBB19B"/>
<path d="M56.4382 29.5V16.4091H58.4134V22.6605H58.5732L64.0639 16.4091H66.5504L61.2706 22.3026L66.5696 29.5H64.1918L59.9602 23.6513L58.4134 25.4283V29.5H56.4382ZM71.0952 29.7173C70.473 29.7173 69.9105 29.6023 69.4077 29.3722C68.9048 29.1378 68.5064 28.799 68.2124 28.3558C67.9226 27.9126 67.7777 27.3693 67.7777 26.7259C67.7777 26.1719 67.8842 25.7159 68.0973 25.358C68.3104 25 68.598 24.7166 68.9602 24.5078C69.3224 24.299 69.7273 24.1413 70.1747 24.0348C70.6222 23.9283 71.0781 23.8473 71.5426 23.7919C72.1307 23.7237 72.608 23.6683 72.9744 23.6257C73.3409 23.5788 73.6072 23.5043 73.7734 23.402C73.9396 23.2997 74.0227 23.1335 74.0227 22.9034V22.8587C74.0227 22.3004 73.8651 21.8679 73.5497 21.5611C73.2386 21.2543 72.7741 21.1009 72.1562 21.1009C71.5128 21.1009 71.0057 21.2436 70.6349 21.5291C70.2685 21.8104 70.0149 22.1236 69.8743 22.4688L68.0781 22.0597C68.2912 21.4631 68.6023 20.9815 69.0114 20.6151C69.4247 20.2443 69.8999 19.9759 70.4368 19.8097C70.9737 19.6392 71.5384 19.554 72.1307 19.554C72.5227 19.554 72.9382 19.6009 73.3771 19.6946C73.8203 19.7841 74.2337 19.9503 74.6172 20.1932C75.005 20.4361 75.3224 20.7834 75.5696 21.2351C75.8168 21.6825 75.9403 22.2642 75.9403 22.9801V29.5H74.0739V28.1577H73.9972C73.8736 28.4048 73.6882 28.6477 73.4411 28.8864C73.1939 29.125 72.8764 29.3232 72.4886 29.4808C72.1009 29.6385 71.6364 29.7173 71.0952 29.7173ZM71.5107 28.1832C72.0391 28.1832 72.4908 28.0788 72.8658 27.87C73.245 27.6612 73.5327 27.3885 73.7287 27.0518C73.929 26.7109 74.0291 26.3466 74.0291 25.9588V24.6932C73.9609 24.7614 73.8288 24.8253 73.6328 24.8849C73.4411 24.9403 73.2216 24.9893 72.9744 25.032C72.7273 25.0703 72.4865 25.1065 72.2521 25.1406C72.0178 25.1705 71.8217 25.196 71.6641 25.2173C71.2933 25.2642 70.9545 25.343 70.6477 25.4538C70.3452 25.5646 70.1023 25.7244 69.919 25.9332C69.7401 26.1378 69.6506 26.4105 69.6506 26.7514C69.6506 27.2244 69.8253 27.5824 70.1747 27.8253C70.5241 28.0639 70.9695 28.1832 71.5107 28.1832ZM78.486 29.5V19.6818H80.3333V21.2415H80.4355C80.6145 20.7131 80.9299 20.2976 81.3816 19.995C81.8375 19.6882 82.3532 19.5348 82.9284 19.5348C83.0478 19.5348 83.1884 19.5391 83.3503 19.5476C83.5165 19.5561 83.6465 19.5668 83.7402 19.5795V21.4077C83.6635 21.3864 83.5272 21.3629 83.3311 21.3374C83.1351 21.3075 82.9391 21.2926 82.7431 21.2926C82.2914 21.2926 81.8887 21.3885 81.535 21.5803C81.1855 21.7678 80.9086 22.0298 80.704 22.3665C80.4995 22.6989 80.3972 23.0781 80.3972 23.5043V29.5H78.486ZM85.3942 33.1818V19.6818H87.2607V21.2734H87.4205C87.5313 21.0689 87.6911 20.8324 87.8999 20.5639C88.1087 20.2955 88.3984 20.0611 88.7692 19.8608C89.1399 19.6562 89.63 19.554 90.2393 19.554C91.032 19.554 91.7393 19.7543 92.3615 20.1548C92.9837 20.5554 93.4716 21.1328 93.8253 21.8871C94.1832 22.6413 94.3622 23.549 94.3622 24.6101C94.3622 25.6712 94.1854 26.581 93.8317 27.3395C93.478 28.0937 92.9922 28.6754 92.3743 29.0845C91.7564 29.4893 91.0511 29.6918 90.2585 29.6918C89.6619 29.6918 89.174 29.5916 88.7947 29.3913C88.4197 29.1911 88.1257 28.9567 87.9126 28.6882C87.6996 28.4197 87.5355 28.1811 87.4205 27.9723H87.3054V33.1818H85.3942ZM87.267 24.5909C87.267 25.2812 87.3672 25.8864 87.5675 26.4062C87.7678 26.9261 88.0575 27.3331 88.4368 27.6271C88.8161 27.9169 89.2805 28.0618 89.8303 28.0618C90.4013 28.0618 90.8786 27.9105 91.2621 27.608C91.6456 27.3011 91.9354 26.8857 92.1314 26.3615C92.3317 25.8374 92.4318 25.2472 92.4318 24.5909C92.4318 23.9432 92.3338 23.3615 92.1378 22.8459C91.946 22.3303 91.6563 21.9233 91.2685 21.625C90.8849 21.3267 90.4055 21.1776 89.8303 21.1776C89.2763 21.1776 88.8075 21.3203 88.424 21.6058C88.0447 21.8913 87.7571 22.2898 87.5611 22.8011C87.3651 23.3125 87.267 23.9091 87.267 24.5909ZM100.639 29.6982C99.7188 29.6982 98.9155 29.4872 98.2294 29.0653C97.5433 28.6435 97.0107 28.0533 96.6314 27.2947C96.2521 26.5362 96.0625 25.6499 96.0625 24.6357C96.0625 23.6172 96.2521 22.7266 96.6314 21.9638C97.0107 21.201 97.5433 20.6087 98.2294 20.1868C98.9155 19.7649 99.7188 19.554 100.639 19.554C101.56 19.554 102.363 19.7649 103.049 20.1868C103.735 20.6087 104.268 21.201 104.647 21.9638C105.026 22.7266 105.216 23.6172 105.216 24.6357C105.216 25.6499 105.026 26.5362 104.647 27.2947C104.268 28.0533 103.735 28.6435 103.049 29.0653C102.363 29.4872 101.56 29.6982 100.639 29.6982ZM100.646 28.0938C101.242 28.0938 101.737 27.9361 102.129 27.6207C102.521 27.3054 102.81 26.8857 102.998 26.3615C103.19 25.8374 103.286 25.2599 103.286 24.6293C103.286 24.0028 103.19 23.4276 102.998 22.9034C102.81 22.375 102.521 21.951 102.129 21.6314C101.737 21.3118 101.242 21.152 100.646 21.152C100.045 21.152 99.5462 21.3118 99.1499 21.6314C98.7578 21.951 98.4659 22.375 98.2741 22.9034C98.0866 23.4276 97.9929 24.0028 97.9929 24.6293C97.9929 25.2599 98.0866 25.8374 98.2741 26.3615C98.4659 26.8857 98.7578 27.3054 99.1499 27.6207C99.5462 27.9361 100.045 28.0938 100.646 28.0938ZM114.706 22.0788L112.974 22.3857C112.902 22.1641 112.787 21.9531 112.629 21.7528C112.476 21.5526 112.267 21.3885 112.003 21.2607C111.738 21.1328 111.408 21.0689 111.012 21.0689C110.471 21.0689 110.019 21.1903 109.657 21.4332C109.295 21.6719 109.113 21.9808 109.113 22.3601C109.113 22.6882 109.235 22.9524 109.478 23.1527C109.721 23.353 110.113 23.517 110.654 23.6449L112.214 24.0028C113.117 24.2116 113.79 24.5334 114.233 24.968C114.677 25.4027 114.898 25.9673 114.898 26.6619C114.898 27.25 114.728 27.7741 114.387 28.2344C114.05 28.6903 113.579 29.0483 112.974 29.3082C112.373 29.5682 111.677 29.6982 110.884 29.6982C109.785 29.6982 108.888 29.4638 108.193 28.995C107.498 28.522 107.072 27.8509 106.915 26.9815L108.762 26.7003C108.877 27.1818 109.113 27.5462 109.471 27.7933C109.829 28.0362 110.296 28.1577 110.871 28.1577C111.498 28.1577 111.998 28.0277 112.373 27.7678C112.748 27.5036 112.936 27.1818 112.936 26.8026C112.936 26.4957 112.821 26.2379 112.591 26.0291C112.365 25.8203 112.018 25.6626 111.549 25.5561L109.887 25.1918C108.971 24.983 108.293 24.6506 107.854 24.1946C107.42 23.7386 107.202 23.1612 107.202 22.4624C107.202 21.8828 107.364 21.3757 107.688 20.9411C108.012 20.5064 108.459 20.1676 109.03 19.9247C109.601 19.6776 110.256 19.554 110.993 19.554C112.054 19.554 112.889 19.7841 113.498 20.2443C114.108 20.7003 114.51 21.3118 114.706 22.0788Z" fill="#DBEAEC"/>
</svg>
